# xmcd CD database file
#
# Track frame offsets:
#	150
#	17256
#	32064
#	50919
#	74194
#	89528
#	110263
#	126757
#	142524
#	154823
#	172802
#
# Disc length: 2586 seconds
#
# Revision: 0
# Processed by: cddbd v1.5.2PL0 Copyright (c) Steve Scherf et al.
# Submitted via: CDex 1.70beta2
#
DISCID=8c0a180b
DTITLE=No Mercy Jugband - Live in Küsters Hof CD1
DYEAR=2001
DGENRE=Jazz
TTITLE0=I Can Dance
TTITLE1=Fishing Blues
TTITLE2=Long Gone Lost John
TTITLE3=Light From The Lighthouse
TTITLE4=Ella Speed
TTITLE5=Good Morning Blues
TTITLE6=Muleskinner Blues
TTITLE7=Going Back To London
TTITLE8=Duellin' Banjos
TTITLE9=Precious Lord
TTITLE10=I'll Be Glad When You're Dead
EXTD=YEAR: 2001
EXTT0=
EXTT1=
EXTT2=
EXTT3=
EXTT4=
EXTT5=
EXTT6=
EXTT7=
EXTT8=
EXTT9=
EXTT10=
PLAYORDER=
